<svg xmlns="http://www.w3.org/2000/svg" width="755.906" height="755.906" viewBox="0 0 200 200"><path d="M97.761 3.293c-11.613 1.581-18.92 12.193-26.723 19.996L19.445 74.883C11.209 83.118 1.38 90.551 3.378 103.458c1.296 8.372 8.303 13.667 13.95 19.315l33.073 33.337 28.981 28.818c6.056 6.14 12.604 12.986 22.083 11.852 11.772-1.408 19.112-11.892 26.987-19.768l51.594-51.594c8.198-8.198 18.057-15.746 16.328-28.575-1.143-8.479-7.993-13.89-13.682-19.579L149.62 44.191l-29.633-29.369c-6.255-6.255-12.462-12.858-22.225-11.529m37.042 49.1c0 5.38-.707 10.794-1.279 16.14-2.035 19.008-6.627 41.363-24.121 52.275-6.255 3.902-13.179 6.188-20.373 7.627-4.232.846-9.563.398-12.651 3.864-7.647 8.584-6.91 26.022 4.185 31.138 8.987 4.145 13.532-1.544 19.579-7.591 1.578-1.578 5.39-4.16 5.954-6.35.292-1.136-.86-2.816-1.068-3.969-.534-2.964.294-6.1 2.134-8.466 1.957-2.517 5.16-3.967 8.327-3.967 1.318 0 3.749 1.135 4.838.387 2.022-1.388 3.747-3.683 5.481-5.417 3.229-3.229 6.682-6.342 9.677-9.79 1.323-1.523 3.838-3.165 4.612-5.027.459-1.106-.73-2.831-.937-3.969-.432-2.375-.238-4.951.801-7.144 3.36-7.089 13.391-8.27 18.253-2.116 4.573 5.788 2.062 15.137-5.155 17.311-1.576.475-3.398.571-5.027.336-.938-.135-1.994-.71-2.91-.241-1.404.718-2.599 2.391-3.704 3.496l-7.408 7.408-6.615 6.615c-.777.777-2.224 1.782-2.47 2.91-.238 1.096.854 2.605 1.065 3.704.545 2.848.107 5.775-1.564 8.202-2.101 3.051-5.575 4.534-9.202 4.497-1.325-.014-3.314-.996-4.498-.344-1.498.825-2.767 2.583-3.969 3.784-4.244 4.244-8.884 10.879-14.817 12.69-12.497 3.815-25.906-7.456-26.448-19.833-.63-14.393 8.121-27.658 16.428-38.629 4.664-6.16 9.887-11.972 15.313-17.463 5.333-5.397 11.555-11.075 15.345-17.727-12.088 7.46-23.176 17.824-32.067 28.84-3.148 3.9-5.998 7.997-8.767 12.171-1.125 1.695-2.158 4.451-3.881 5.556-2.666-9.769-5.319-18.906-2.785-29.104 5.641-22.699 29.662-31.613 49.88-37.343 6.329-1.794 13.271-3.938 19.844-4.461M112.578 76.47l.265.265z" fill="#2e95f2"/></svg>